<svg height="256" width="256" xmlns="http://www.w3.org/2000/svg" viewBox="0 0 256 256"><path d="M128,21.79A106.21,106.21,0,1,1,21.79,128,106.35,106.35,0,0,1,128,21.79M128,0A125.41,125.41,0,0,0,78.16,10.08a128.84,128.84,0,0,0-40.58,27.5A126.92,126.92,0,0,0,0,128a125.41,125.41,0,0,0,10.08,49.84,128.84,128.84,0,0,0,27.5,40.58A126.92,126.92,0,0,0,128,256a125.41,125.41,0,0,0,49.84-10.08,128.84,128.84,0,0,0,40.58-27.5A126.92,126.92,0,0,0,256,128a125.41,125.41,0,0,0-10.08-49.84,128.84,128.84,0,0,0-27.5-40.58A126.92,126.92,0,0,0,128,0Zm0,63.18A64.82,64.82,0,1,0,192.82,128,65,65,0,0,0,128,63.18Z" transform="translate(0)"/></svg>