<svg height="256" width="256" xmlns="http://www.w3.org/2000/svg" viewBox="0 0 256 256"><path d="M128,21.79A106.21,106.21,0,1,1,21.79,128,106.35,106.35,0,0,1,128,21.79M128,0A125.41,125.41,0,0,0,78.16,10.08a128.84,128.84,0,0,0-40.58,27.5A126.92,126.92,0,0,0,0,128a125.41,125.41,0,0,0,10.08,49.84,128.84,128.84,0,0,0,27.5,40.58A126.92,126.92,0,0,0,128,256a125.41,125.41,0,0,0,49.84-10.08,128.84,128.84,0,0,0,40.58-27.5A126.92,126.92,0,0,0,256,128a125.41,125.41,0,0,0-10.08-49.84,128.84,128.84,0,0,0-27.5-40.58A126.92,126.92,0,0,0,128,0Zm52.29,128a20.43,20.43,0,1,0-20.43,20.43A20.4,20.4,0,0,0,180.29,128ZM132.9,86.6A20.43,20.43,0,1,0,112.48,107,20.4,20.4,0,0,0,132.9,86.6Zm0,82.8a20.43,20.43,0,1,0-20.42,20.42A20.23,20.23,0,0,0,132.9,169.4Z" transform="translate(0 0)"/></svg>