<svg height="256" width="256" xmlns="http://www.w3.org/2000/svg" viewBox="0 0 256 256"><path d="M128,210.25a13.48,13.48,0,0,1-13.62-13.62V59.37a13.62,13.62,0,0,1,27.24,0V196.63A13.48,13.48,0,0,1,128,210.25ZM98,158V98a13.62,13.62,0,0,0-27.23,0V158A13.62,13.62,0,0,0,98,158Zm87.15,0V98A13.62,13.62,0,0,0,158,98V158a13.62,13.62,0,0,0,27.23,0ZM128,21.79A106.21,106.21,0,1,0,234.21,128,106.35,106.35,0,0,0,128,21.79M128,0a125.41,125.41,0,0,1,49.84,10.08,128.84,128.84,0,0,1,40.58,27.5A126.92,126.92,0,0,1,256,128a125.41,125.41,0,0,1-10.08,49.84,128.84,128.84,0,0,1-27.5,40.58A126.92,126.92,0,0,1,128,256a125.41,125.41,0,0,1-49.84-10.08,128.84,128.84,0,0,1-40.58-27.5A126.92,126.92,0,0,1,0,128,125.41,125.41,0,0,1,10.08,78.16a128.84,128.84,0,0,1,27.5-40.58A126.92,126.92,0,0,1,128,0Z" transform="translate(0 0)"/></svg>