<svg height="256" width="256" xmlns="http://www.w3.org/2000/svg" viewBox="0 0 256 256"><path d="M128,46.3A81.7,81.7,0,1,0,209.7,128,81.59,81.59,0,0,0,128,46.3ZM73.53,128a54.89,54.89,0,0,1,40.85-52.83V180.83A54.89,54.89,0,0,1,73.53,128Zm68.09,52.83V75.17a54.59,54.59,0,0,1,0,105.66ZM128,21.79A106.21,106.21,0,1,1,21.79,128,106.35,106.35,0,0,1,128,21.79M128,0A125.41,125.41,0,0,0,78.16,10.08a128.84,128.84,0,0,0-40.58,27.5A126.92,126.92,0,0,0,0,128a125.41,125.41,0,0,0,10.08,49.84,128.84,128.84,0,0,0,27.5,40.58A126.92,126.92,0,0,0,128,256a125.41,125.41,0,0,0,49.84-10.08,128.84,128.84,0,0,0,40.58-27.5A126.92,126.92,0,0,0,256,128a125.41,125.41,0,0,0-10.08-49.84,128.84,128.84,0,0,0-27.5-40.58A126.92,126.92,0,0,0,128,0Z" transform="translate(0 0)"/></svg>